<svg width="198" height="34" xmlns="http://www.w3.org/2000/svg" xmlns:xlink="http://www.w3.org/1999/xlink" xml:space="preserve" overflow="hidden"><defs><clipPath id="clip0"><rect x="550" y="214" width="198" height="34"/></clipPath><clipPath id="clip1"><rect x="551" y="215" width="196" height="33"/></clipPath><clipPath id="clip2"><rect x="551" y="215" width="196" height="33"/></clipPath><clipPath id="clip3"><rect x="551" y="215" width="196" height="33"/></clipPath></defs><g clip-path="url(#clip0)" transform="translate(-550 -214)"><g clip-path="url(#clip1)"><g clip-path="url(#clip2)"><g clip-path="url(#clip3)"><path d="M13.5222 7.722C16.6902 7.722 19.0196 8.36258 20.5105 9.64376 22.0246 10.9249 22.7816 12.6021 22.7816 14.6753 22.7816 15.3741 22.6885 16.1545 22.5021 17.0164 22.0595 18.9265 21.2326 20.6036 20.0213 22.0479 18.81 23.4688 17.3192 24.5753 15.5488 25.3673 13.8018 26.136 11.9033 26.5204 9.85341 26.5204 6.61552 26.5204 4.21623 25.8798 2.65552 24.5986 1.11811 23.2941 0.349397 21.5704 0.349397 19.4273 0.349397 18.7052 0.442574 17.9015 0.628927 17.0164 1.07152 15.1994 1.91011 13.5921 3.1447 12.1945 4.40258 10.7735 5.92834 9.67871 7.72199 8.91 9.53893 8.118 11.4724 7.722 13.5222 7.722ZM13.4174 10.8318C12.9282 10.8318 12.4041 11.2744 11.8451 12.1595 11.3093 13.0214 10.6687 14.6636 9.92329 17.0862 9.17787 19.5088 8.80517 21.2093 8.80517 22.1876 8.80517 22.7001 8.8867 23.0495 9.04975 23.2359 9.21281 23.3989 9.43411 23.4805 9.71365 23.4805 10.2028 23.5271 10.7036 23.1078 11.2161 22.2226 11.7519 21.3374 12.4158 19.6136 13.2078 17.0513 13.9299 14.7918 14.2909 13.1495 14.2909 12.1246 14.2909 11.6354 14.2094 11.2976 14.0464 11.1113 13.9066 10.9249 13.6969 10.8318 13.4174 10.8318Z" fill="#FFFFFF" fill-rule="nonzero" fill-opacity="1" transform="matrix(1.0303 0 0 1 551 215)"/><path d="M43.6667 21.384C43.6201 21.4772 43.5968 21.6169 43.5968 21.8033 43.5968 21.9664 43.6317 22.0945 43.7016 22.1876 43.7948 22.2808 43.9113 22.3274 44.051 22.3274 44.3306 22.3274 44.5635 22.2109 44.7498 21.978 44.9595 21.7218 45.0993 21.5936 45.1691 21.5936 45.2856 21.5936 45.3788 21.6752 45.4487 21.8382 45.5185 21.978 45.5535 22.1527 45.5535 22.3624 45.5768 23.0379 45.3555 23.7018 44.8896 24.354 44.4237 24.9829 43.7365 25.5071 42.8281 25.9264 41.9429 26.3224 40.8714 26.5204 39.6135 26.5204 38.0761 26.5204 36.8531 26.1709 35.9447 25.4721 35.0362 24.75 34.5703 23.7949 34.547 22.6069 34.547 21.7451 34.7567 20.7784 35.176 19.7068L37.0977 14.6753C37.2142 14.3725 37.2724 14.1279 37.2724 13.9415 37.2724 13.6387 37.1676 13.4058 36.958 13.2427 36.7716 13.0564 36.5387 12.9632 36.2591 12.9632 35.8166 12.9632 35.3623 13.1728 34.8964 13.5921 34.4538 13.9881 34.0928 14.6404 33.8133 15.5488L33.8133 15.4789 31.612 22.572C31.5421 22.8515 31.5071 23.0961 31.5071 23.3058 31.5071 23.6086 31.5654 23.8532 31.6818 24.0395 31.7983 24.2026 31.9614 24.3656 32.171 24.5287 32.3341 24.6918 32.4505 24.8315 32.5204 24.948 32.5903 25.0412 32.602 25.1693 32.5554 25.3324 32.4389 25.6352 32.206 25.8565 31.8565 25.9962 31.5071 26.136 30.9714 26.2059 30.2493 26.2059L22.2827 26.2059C21.677 26.2059 21.2344 26.1127 20.9549 25.9264 20.6754 25.7167 20.5822 25.4488 20.6754 25.1227 20.7685 24.8432 21.0131 24.5986 21.4091 24.3889 21.7585 24.2026 22.0497 23.9813 22.2827 23.7251 22.5156 23.4688 22.7136 23.0612 22.8767 22.5021L28.1877 5.06647C28.2576 4.85682 28.2925 4.68212 28.2925 4.54235 28.2925 4.28612 28.2227 4.07647 28.0829 3.91341 27.9664 3.75035 27.8034 3.58729 27.5937 3.42424 27.3608 3.23788 27.1861 3.07482 27.0696 2.93506 26.9764 2.79529 26.9648 2.60894 27.0347 2.376 27.1744 1.84024 27.9082 1.37435 29.236 0.978343 30.5637 0.582349 31.9497 0.384349 33.394 0.384349 34.745 0.384349 35.735 0.640584 36.364 1.15306 37.0162 1.66553 37.3423 2.36435 37.3423 3.24953 37.3423 3.762 37.2608 4.26282 37.0977 4.752L35.2109 10.9016C36.1194 9.71365 37.0744 8.88671 38.0761 8.42082 39.101 7.95494 40.2075 7.722 41.3955 7.722 42.8164 7.722 43.9578 8.15294 44.8197 9.01482 45.7049 9.87671 46.1475 10.9948 46.1475 12.3692 46.1475 13.0913 46.031 13.8018 45.7981 14.5006L43.6667 21.384Z" fill="#FFFFFF" fill-rule="nonzero" fill-opacity="1" transform="matrix(1.0303 0 0 1 551 215)"/><path d="M80.2837 21.384C80.2371 21.4772 80.2138 21.6169 80.2138 21.8033 80.2138 21.9664 80.2487 22.0945 80.3186 22.1876 80.4118 22.2808 80.5282 22.3274 80.668 22.3274 80.9475 22.3274 81.1805 22.2109 81.3668 21.978 81.5765 21.7218 81.7162 21.5936 81.7861 21.5936 81.9026 21.5936 81.9958 21.6752 82.0657 21.8382 82.1355 21.978 82.1705 22.1527 82.1705 22.3624 82.1938 23.0379 81.9725 23.7018 81.5066 24.354 81.0407 24.9829 80.3535 25.5071 79.4451 25.9264 78.5599 26.3224 77.4884 26.5204 76.2305 26.5204 74.6931 26.5204 73.4701 26.1709 72.5617 25.4721 71.6532 24.75 71.1873 23.7949 71.164 22.6069 71.164 21.7451 71.3737 20.7784 71.793 19.7068L73.7147 14.6753C73.8312 14.3725 73.8894 14.1279 73.8894 13.9415 73.8894 13.6387 73.7846 13.4058 73.575 13.2427 73.3886 13.0564 73.1557 12.9632 72.8761 12.9632 72.4801 12.9632 72.0725 13.1379 71.6532 13.4873 71.2339 13.8367 70.8612 14.3841 70.5351 15.1295L68.6133 21.384C68.5667 21.4772 68.5434 21.6169 68.5434 21.8033 68.5434 21.9664 68.5784 22.0945 68.6482 22.1876 68.7414 22.2808 68.8579 22.3274 68.9977 22.3274 69.2772 22.3274 69.5101 22.2109 69.6965 21.978 69.9061 21.7218 70.0459 21.5936 70.1158 21.5936 70.2322 21.5936 70.3254 21.6752 70.3953 21.8382 70.4652 21.978 70.5001 22.1527 70.5001 22.3624 70.5234 23.0379 70.3021 23.7018 69.8363 24.354 69.3704 24.9829 68.6832 25.5071 67.7747 25.9264 66.8895 26.3224 65.818 26.5204 64.5601 26.5204 63.0227 26.5204 61.7998 26.1709 60.8913 25.4721 59.9828 24.75 59.517 23.7949 59.4937 22.6069 59.4937 21.7451 59.7033 20.7784 60.1226 19.7068L62.0444 14.6753C62.1608 14.3725 62.2191 14.1279 62.2191 13.9415 62.2191 13.6387 62.1142 13.4058 61.9046 13.2427 61.7183 13.0564 61.4853 12.9632 61.2058 12.9632 60.8098 12.9632 60.4021 13.1379 59.9828 13.4873 59.5635 13.8134 59.2141 14.3492 58.9346 15.0946L56.6285 22.572C56.5353 22.8282 56.4887 23.0728 56.4887 23.3058 56.4887 23.5853 56.547 23.8182 56.6634 24.0046 56.7799 24.1676 56.943 24.3424 57.1526 24.5287 57.3157 24.6685 57.4321 24.7966 57.502 24.9131 57.5719 25.0295 57.5835 25.1693 57.537 25.3324 57.4438 25.6352 57.2225 25.8565 56.8731 25.9962 56.5237 26.136 55.9762 26.2059 55.2308 26.2059L47.2642 26.2059C46.6586 26.2059 46.2277 26.1127 45.9714 25.9264 45.6919 25.7167 45.5871 25.4488 45.657 25.1227 45.7501 24.8432 45.9947 24.5986 46.3907 24.3889 46.7401 24.2026 47.0313 23.9813 47.2642 23.7251 47.4972 23.4688 47.6952 23.0612 47.8582 22.5021L50.968 12.4041C51.0146 12.2876 51.0379 12.1246 51.0379 11.9149 51.0379 11.6587 50.9797 11.4607 50.8632 11.3209 50.77 11.1812 50.607 11.0065 50.374 10.7968 50.1411 10.6105 49.978 10.4474 49.8848 10.3076 49.7917 10.1679 49.78 9.98153 49.8499 9.74859 49.9897 9.21282 50.7234 8.74694 52.0512 8.35094 53.379 7.93165 54.765 7.722 56.2092 7.722 57.3506 7.722 58.2474 8.03647 58.8997 8.66541 59.5752 9.29435 59.9013 10.1562 59.878 11.2511 60.8331 9.92329 61.8347 9.00318 62.883 8.49071 63.9545 7.97824 65.1075 7.722 66.3421 7.722 67.6932 7.722 68.788 8.118 69.6266 8.91 70.4885 9.67871 70.966 10.692 71.0592 11.9499 72.0608 10.3659 73.1324 9.27106 74.2738 8.66541 75.4152 8.03647 76.6614 7.722 78.0125 7.722 79.4334 7.722 80.5748 8.15294 81.4367 9.01482 82.3219 9.87671 82.7645 10.9948 82.7645 12.3692 82.7645 13.0913 82.648 13.8018 82.4151 14.5006L80.2837 21.384Z" fill="#FFFFFF" fill-rule="nonzero" fill-opacity="1" transform="matrix(1.0303 0 0 1 551 215)"/><path d="M101.846 7.722C102.871 7.722 103.686 8.14129 104.292 8.97988 104.921 9.79518 105.235 10.9133 105.235 12.3342 105.235 13.5688 105.014 14.8966 104.571 16.3175 103.709 19.1827 102.323 21.8848 100.413 24.4239 98.5264 26.9629 96.3479 29.0012 93.8787 30.5386 91.4328 32.076 88.987 32.8447 86.5411 32.8447 85.3298 32.8447 84.2815 32.6351 83.3963 32.2158 82.5345 31.7965 81.8822 31.2374 81.4396 30.5386 80.9737 29.8398 80.7408 29.0944 80.7408 28.3024 80.7408 27.9529 80.799 27.5686 80.9155 27.1493 81.1252 26.4971 81.4746 25.9962 81.9638 25.6468 82.4529 25.2974 83.0354 25.1227 83.7109 25.1227 84.7824 25.1227 85.6559 25.4838 86.3314 26.2059 87.0302 26.9513 87.4729 27.9646 87.6593 29.2458 89.1501 29.1759 90.5243 28.5353 91.7822 27.324 90.5942 27.1144 89.709 26.7184 89.1267 26.136 88.5676 25.5304 88.1833 24.5986 87.9736 23.3407L86.576 14.7801C86.5061 14.3375 86.4013 14.0347 86.2615 13.8716 86.145 13.6853 85.9821 13.5921 85.7724 13.5921 85.6094 13.5921 85.4113 13.6736 85.1783 13.8367 84.9687 13.9998 84.8173 14.0813 84.7241 14.0813 84.5378 14.0813 84.4446 13.8833 84.4446 13.4873 84.4446 13.1612 84.5028 12.8118 84.6193 12.4391 85.0386 11.1113 85.819 9.99318 86.9604 9.08471 88.1018 8.15294 89.4295 7.68706 90.9436 7.68706 92.4344 7.68706 93.5293 8.12965 94.2281 9.01482 94.9502 9.9 95.4162 11.2627 95.6258 13.1029L96.674 20.79C96.7439 21.3724 96.9535 21.6635 97.3034 21.6635 97.7227 21.6635 98.2119 21.2908 98.7709 20.5454 99.33 19.7767 99.8774 18.6935 100.413 17.2959 99.7143 16.6669 99.1786 15.9448 98.8059 15.1295 98.4332 14.3142 98.2468 13.4407 98.2468 12.5089 98.2468 11.7868 98.34 11.1346 98.5264 10.5522 98.8059 9.62047 99.2368 8.92165 99.8192 8.45576 100.425 7.96659 101.1 7.722 101.846 7.722Z" fill="#FFFFFF" fill-rule="nonzero" fill-opacity="1" transform="matrix(1.0303 0 0 1 551 215)"/><path d="M119.25 0.384349C121.743 0.384349 123.606 0.768702 124.841 1.53741 126.099 2.28282 126.728 3.20294 126.728 4.29776 126.728 5.18294 126.355 5.87012 125.61 6.35929 124.888 6.82518 123.932 7.05812 122.744 7.05812 121.65 7.05812 120.799 6.79024 120.194 6.25447 119.588 5.71871 119.285 5.05482 119.285 4.26282 119.285 3.77365 119.437 3.26118 119.74 2.72541 119.041 2.72541 118.458 2.90012 117.992 3.24953 117.527 3.57565 117.166 4.14635 116.909 4.96165 116.77 5.47412 116.7 5.95165 116.7 6.39424 116.7 6.95329 116.793 7.39588 116.979 7.722 117.189 8.02482 117.48 8.17624 117.853 8.17624L119.914 8.17624C121.126 8.17624 121.731 8.54894 121.731 9.29435 121.731 9.38753 121.708 9.52729 121.661 9.71365 121.522 10.2261 121.23 10.6105 120.788 10.8667 120.368 11.1229 119.728 11.2511 118.866 11.2511L117.818 11.2511 114.359 22.572C114.289 22.8515 114.254 23.0961 114.254 23.3058 114.254 23.6086 114.312 23.8532 114.428 24.0395 114.545 24.2026 114.708 24.3656 114.918 24.5287 115.081 24.6918 115.197 24.8315 115.267 24.948 115.337 25.0412 115.349 25.1693 115.302 25.3324 115.186 25.6352 114.953 25.8565 114.603 25.9962 114.254 26.136 113.718 26.2059 112.996 26.2059L105.029 26.2059C104.424 26.2059 103.981 26.1127 103.702 25.9264 103.422 25.7167 103.329 25.4488 103.422 25.1227 103.515 24.8432 103.76 24.5986 104.156 24.3889 104.505 24.2026 104.796 23.9813 105.029 23.7251 105.262 23.4688 105.46 23.0612 105.623 22.5021L108.349 13.5572C108.465 13.2078 108.523 12.8467 108.523 12.474 108.523 12.0081 108.419 11.6471 108.209 11.3908 108.023 11.1113 107.731 10.8085 107.335 10.4824 107.079 10.2727 106.881 10.098 106.741 9.95823 106.625 9.79518 106.567 9.60882 106.567 9.39918 106.543 8.95659 106.695 8.64212 107.021 8.45576 107.37 8.26941 108.023 8.17624 108.978 8.17624L109.851 8.17624C109.688 7.59388 109.607 7.01153 109.607 6.42918 109.607 5.84682 109.711 5.24118 109.921 4.61224 110.364 3.42424 111.307 2.42259 112.751 1.60728 114.219 0.791996 116.385 0.384349 119.25 0.384349Z" fill="#FFFFFF" fill-rule="nonzero" fill-opacity="1" transform="matrix(1.0303 0 0 1 551 215)"/><path d="M133.052 7.722C136.22 7.722 138.55 8.36258 140.04 9.64376 141.554 10.9249 142.312 12.6021 142.312 14.6753 142.312 15.3741 142.218 16.1545 142.032 17.0164 141.589 18.9265 140.762 20.6036 139.551 22.0479 138.34 23.4688 136.849 24.5753 135.079 25.3673 133.332 26.136 131.433 26.5204 129.383 26.5204 126.145 26.5204 123.746 25.8798 122.185 24.5986 120.648 23.2941 119.879 21.5704 119.879 19.4273 119.879 18.7052 119.972 17.9015 120.159 17.0164 120.601 15.1994 121.44 13.5921 122.675 12.1945 123.932 10.7735 125.458 9.67871 127.252 8.91 129.069 8.118 131.002 7.722 133.052 7.722ZM132.947 10.8318C132.458 10.8318 131.934 11.2744 131.375 12.1595 130.839 13.0214 130.199 14.6636 129.453 17.0862 128.708 19.5088 128.335 21.2093 128.335 22.1876 128.335 22.7001 128.417 23.0495 128.58 23.2359 128.743 23.3989 128.964 23.4805 129.244 23.4805 129.733 23.5271 130.234 23.1078 130.746 22.2226 131.282 21.3374 131.946 19.6136 132.738 17.0513 133.46 14.7918 133.821 13.1495 133.821 12.1246 133.821 11.6354 133.739 11.2976 133.576 11.1113 133.436 10.9249 133.227 10.8318 132.947 10.8318Z" fill="#FFFFFF" fill-rule="nonzero" fill-opacity="1" transform="matrix(1.0303 0 0 1 551 215)"/><path d="M155.982 7.722C159.15 7.722 161.48 8.36258 162.97 9.64376 164.485 10.9249 165.242 12.6021 165.242 14.6753 165.242 15.3741 165.148 16.1545 164.962 17.0164 164.52 18.9265 163.693 20.6036 162.481 22.0479 161.27 23.4688 159.779 24.5753 158.009 25.3673 156.262 26.136 154.363 26.5204 152.313 26.5204 149.076 26.5204 146.676 25.8798 145.116 24.5986 143.578 23.2941 142.809 21.5704 142.809 19.4273 142.809 18.7052 142.903 17.9015 143.089 17.0164 143.532 15.1994 144.37 13.5921 145.605 12.1945 146.863 10.7735 148.388 9.67871 150.182 8.91 151.999 8.118 153.932 7.722 155.982 7.722ZM155.877 10.8318C155.388 10.8318 154.864 11.2744 154.305 12.1595 153.769 13.0214 153.129 14.6636 152.383 17.0862 151.638 19.5088 151.265 21.2093 151.265 22.1876 151.265 22.7001 151.347 23.0495 151.51 23.2359 151.673 23.3989 151.894 23.4805 152.174 23.4805 152.663 23.5271 153.164 23.1078 153.676 22.2226 154.212 21.3374 154.876 19.6136 155.668 17.0513 156.39 14.7918 156.751 13.1495 156.751 12.1246 156.751 11.6354 156.669 11.2976 156.506 11.1113 156.367 10.9249 156.157 10.8318 155.877 10.8318Z" fill="#FFFFFF" fill-rule="nonzero" fill-opacity="1" transform="matrix(1.0303 0 0 1 551 215)"/><path d="M184.922 21.1744C184.876 21.3607 184.852 21.4888 184.852 21.5587 184.852 21.7218 184.899 21.8499 184.992 21.9431 185.085 22.0362 185.202 22.0828 185.342 22.0828 185.621 22.0828 185.854 21.9664 186.04 21.7334 186.25 21.4772 186.39 21.3491 186.46 21.3491 186.576 21.3491 186.669 21.4306 186.739 21.5936 186.809 21.7567 186.844 21.9431 186.844 22.1527 186.867 22.7816 186.623 23.4222 186.11 24.0745 185.621 24.7267 184.957 25.2625 184.119 25.6818 183.28 26.1011 182.372 26.3107 181.393 26.3107 180.229 26.3107 179.215 26.0894 178.353 25.6468 177.491 25.2042 176.897 24.6219 176.571 23.8998 175.942 24.7151 175.22 25.3207 174.405 25.7167 173.59 26.1127 172.728 26.3107 171.819 26.3107 170.748 26.3107 169.746 26.0428 168.814 25.5071 167.906 24.9713 167.172 24.2142 166.613 23.2359 166.077 22.2342 165.809 21.1045 165.809 19.8466 165.809 17.7268 166.205 15.7352 166.997 13.8716 167.813 11.9848 168.943 10.4707 170.387 9.32929 171.831 8.16459 173.473 7.58223 175.313 7.58223 176.315 7.58223 177.165 7.69871 177.864 7.93165 178.586 8.16459 179.239 8.514 179.821 8.97988L181.009 5.06647C181.079 4.85682 181.114 4.68212 181.114 4.54235 181.114 4.28612 181.044 4.07647 180.904 3.91341 180.788 3.75035 180.625 3.58729 180.415 3.42424 180.182 3.23788 180.007 3.07482 179.891 2.93506 179.798 2.79529 179.786 2.60894 179.856 2.376 179.996 1.84024 180.729 1.37435 182.057 0.978343 183.385 0.582349 184.771 0.384349 186.215 0.384349 187.566 0.384349 188.556 0.640584 189.185 1.15306 189.837 1.66553 190.163 2.36435 190.163 3.24953 190.163 3.762 190.082 4.26282 189.919 4.752L184.922 21.1744ZM179.087 11.3559C178.714 11.0298 178.307 10.8667 177.864 10.8667 177.189 10.8667 176.525 11.3675 175.873 12.3692 175.22 13.3708 174.696 14.5821 174.3 16.0031 173.904 17.424 173.718 18.7052 173.741 19.8466 173.741 21.1278 174.16 21.7684 174.999 21.7684 175.302 21.7684 175.558 21.6519 175.768 21.4189 175.977 21.1627 176.175 20.7551 176.362 20.196L179.087 11.3559Z" fill="#FFFFFF" fill-rule="nonzero" fill-opacity="1" transform="matrix(1.0303 0 0 1 551 215)"/></g></g></g></g></svg>